PathFileType	4	(X/Y/Z)	c:/Users/goper/Files/vsCode/490R/osim_files/C15/C15_Slow_04.trc
DataRate	CameraRate	NumFrames	NumMarkers	Units                	OrigDataRate	OrigDataStartFrame	OrigNumFrames
250.00	250.00	6	36	mm	250.0	1516	3031
                Frame#	Time	LPSIS			LASIS			LTH1			LTH2			LTH3			LTH4			LLFE			LMFE			LSH1			LSH2			LSH3			LSH4			LLMAL			LMMAL			LCAL			LMTP5			LTOE			LMTP1			RPSIS			RASIS			RTH1			RTH2			RTH3			RTH4			RLFE			RMFE			RSH1			RSH2			RSH3			RSH4			RLMAL			RMMAL			RCAL			RMTP1			RTOE			RMTP5		
		X1	Y1	Z1	X2	Y2	Z2	X3	Y3	Z3	X4	Y4	Z4	X5	Y5	Z5	X6	Y6	Z6	X7	Y7	Z7	X8	Y8	Z8	X9	Y9	Z9	X10	Y10	Z10	X11	Y11	Z11	X12	Y12	Z12	X13	Y13	Z13	X14	Y14	Z14	X15	Y15	Z15	X16	Y16	Z16	X17	Y17	Z17	X18	Y18	Z18	X19	Y19	Z19	X20	Y20	Z20	X21	Y21	Z21	X22	Y22	Z22	X23	Y23	Z23	X24	Y24	Z24	X25	Y25	Z25	X26	Y26	Z26	X27	Y27	Z27	X28	Y28	Z28	X29	Y29	Z29	X30	Y30	Z30	X31	Y31	Z31	X32	Y32	Z32	X33	Y33	Z33	X34	Y34	Z34	X35	Y35	Z35	X36	Y36	Z36

1516	6.06000	82.92884	1021.06891	262.08780	-72.93275	999.39929	344.63147	-77.38581	613.97687	424.23392	-90.10929	567.78271	410.74496	-125.51836	632.68726	424.24719	-136.03854	587.88611	420.01892	-117.22958	504.55185	396.20050	-141.58888	480.35983	278.11697	-17.84458	460.01562	393.31940	11.01572	426.77942	398.04007	-61.64167	416.30618	407.56256	-26.29703	388.94620	410.88995	158.80157	207.58720	343.67535	111.40105	203.70253	260.97855	211.00812	223.00404	285.96420	105.85143	91.61111	381.50903	33.66973	75.05790	335.68304	73.35254	71.11276	271.44391	65.42831	1024.55493	142.65601	-97.61123	998.71478	97.85545	-61.88599	625.39246	51.80119	-64.92015	580.34174	61.76258	-119.73386	628.97125	70.74950	-116.56721	581.92169	76.08710	-73.66966	489.26666	95.04709	-43.20884	475.32986	209.16006	10.07728	384.51456	68.88248	11.58211	340.33902	67.55088	-52.44220	373.03058	79.08801	-40.07695	332.84937	74.20206	21.12745	81.47501	142.12816	-3.78296	105.18540	232.15753	86.06288	60.24902	187.21588	-117.23332	34.45222	238.70474	-153.31566	55.61543	184.69897	-95.55778	30.23134	116.92637
1517	6.06400	79.70387	1021.38678	262.13943	-76.33707	999.85980	344.32556	-82.63838	614.97009	424.44052	-95.49318	568.75128	410.88513	-130.72156	633.89551	424.31119	-140.97018	589.37000	420.26999	-122.84966	505.62103	395.97537	-146.71745	481.71368	277.76965	-23.65390	459.74854	392.88022	4.67924	426.03299	397.78220	-68.11164	416.69382	407.34769	-33.10858	388.82611	410.82150	148.81775	204.01695	343.91522	101.34146	201.00319	261.16440	201.44951	218.16850	286.28650	93.55064	89.17693	381.75940	21.09327	74.12709	335.86234	60.54453	69.32153	271.64862	62.44101	1024.74329	142.67296	-100.06593	998.96368	97.26031	-63.27020	625.38843	51.69851	-65.97879	580.28351	61.71426	-121.13869	628.78094	70.59586	-117.57780	581.69604	75.99555	-74.37292	489.23224	94.80206	-44.18132	475.33502	209.03848	9.72876	384.62958	69.03620	11.44646	340.45062	67.60426	-52.74331	372.91705	78.94727	-40.24529	332.83719	74.11731	21.07411	81.50815	142.17844	-4.46081	105.08787	232.51372	85.53703	60.39499	187.38466	-117.24700	34.44632	238.68784	-153.32742	55.56707	184.70894	-95.58157	30.19606	116.94665
1518	6.06800	76.51766	1021.67596	262.21771	-79.57822	1000.28711	344.15317	-87.78101	615.86182	424.71591	-101.03432	569.75305	411.07990	-135.84381	635.06744	424.39160	-146.42984	590.32007	420.29916	-128.45842	506.58051	395.76831	-152.14664	482.85742	277.77173	-29.39207	459.37967	392.53970	-1.58411	425.19385	397.45206	-74.44341	417.08905	407.15503	-40.00511	388.64136	410.73276	138.75201	200.30560	344.12637	91.21971	198.41112	261.48251	191.76070	213.22786	286.60327	80.85465	86.66982	382.04071	8.19540	73.19363	336.03650	47.48619	67.48435	271.96811	59.52313	1024.90442	142.71593	-103.26814	998.66431	97.25890	-64.54470	625.36292	51.58921	-67.11299	580.28113	61.59341	-122.36279	628.53564	70.45077	-118.74416	581.48395	75.92455	-75.00281	489.13870	94.55827	-44.96361	475.31265	208.89827	9.50905	384.73416	69.10690	11.25632	340.55624	67.65618	-52.95299	372.83441	78.81609	-40.38347	332.81934	74.02308	21.06357	81.55099	142.25589	-3.93756	105.41613	232.16557	85.49194	60.41933	187.42848	-117.25562	34.46420	238.75032	-153.33983	55.48125	184.69295	-95.57882	30.15907	116.94472
1519	6.07200	73.32178	1021.95325	262.28690	-82.94730	1000.61462	343.95865	-92.91275	616.84088	424.95801	-106.45781	570.81689	411.29688	-141.03461	636.21851	424.38181	-151.68643	591.43524	420.36490	-133.89941	507.67279	395.55331	-157.20810	483.79257	277.80942	-35.15601	458.85355	392.21570	-7.83061	424.26779	397.19519	-80.78174	417.33221	407.07278	-47.06554	388.27606	410.63626	128.48085	196.49315	344.43506	80.94709	195.59669	261.72195	181.89415	208.20882	286.89331	68.31179	84.10554	382.31351	-4.27081	72.27174	336.38977	34.80371	65.69955	272.00403	56.49448	1025.02795	142.77364	-106.11720	998.60889	96.93177	-65.75423	625.38531	51.50536	-68.24651	580.28436	61.49685	-123.87404	628.31384	70.39503	-119.74756	581.22174	75.77856	-75.57739	489.00702	94.30978	-45.74203	475.30978	208.80319	9.23209	384.83380	69.15917	11.07428	340.69604	67.70438	-53.15026	372.81128	78.67995	-40.51124	332.81253	73.92422	21.03042	81.61275	142.33211	-4.02328	105.46891	232.21320	85.47272	60.48866	187.47339	-117.23346	34.41208	238.79541	-153.35217	55.41793	184.68739	-95.56052	30.12835	116.91418
1520	6.07600	70.05029	1022.19147	262.36554	-86.38016	1001.13159	343.62155	-98.01568	617.69446	425.17624	-111.87953	571.72369	411.40158	-145.98608	637.35480	424.38049	-156.75513	592.62982	420.39407	-139.27132	508.59988	395.34189	-162.01318	484.64557	277.75830	-41.48469	457.88498	392.09442	-14.12623	423.10678	396.91003	-87.15567	417.49466	406.95465	-53.47239	388.16800	410.62653	118.10358	192.54642	344.66718	69.90237	192.60693	261.98004	171.86226	203.10674	287.21509	55.44093	81.54289	382.62827	-17.68418	71.45696	336.53070	22.70304	64.50076	271.87955	53.59164	1025.16968	142.78629	-108.92573	998.58514	96.67966	-67.12032	625.46991	51.39964	-69.36210	580.28778	61.38980	-124.91468	628.01758	70.31541	-120.94290	581.01416	75.68426	-76.14297	488.85928	94.07495	-46.58379	475.33566	208.73582	8.93140	384.95685	69.20354	10.92482	340.80792	67.75633	-53.43907	372.83707	78.53173	-40.64444	332.82550	73.80586	20.99071	81.63928	142.37303	-4.07699	105.50278	232.22820	85.43874	60.54112	187.49638	-117.25581	34.43529	238.79256	-153.36937	55.37151	184.66174	-95.56950	30.10650	116.90373
1521	6.08000	66.88457	1022.44293	262.42941	-89.74450	1001.43744	343.39774	-103.13915	618.45831	425.31265	-118.24680	572.08496	410.92920	-151.03386	638.42798	424.36017	-161.88002	593.70807	420.43234	-144.86343	509.55817	395.06665	-167.00969	485.55838	277.63156	-46.50588	457.52551	391.52652	-20.34310	421.96384	396.69568	-93.55130	417.54999	406.75784	-59.97004	387.93863	410.58188	107.69080	188.81192	344.95334	59.61762	189.56592	262.15698	161.67177	197.90846	287.49570	42.64463	78.96374	382.88538	-30.72286	70.60651	336.90259	9.04493	62.75597	272.19559	50.57991	1025.24658	142.86879	-111.35291	998.72852	96.13679	-68.43311	625.49347	51.34938	-70.49414	580.34528	61.25588	-126.47710	627.83185	70.19442	-121.95528	580.79407	75.54591	-76.74581	488.71765	93.87209	-47.36135	475.35880	208.57928	8.64276	385.03302	69.25484	10.72528	340.92212	67.81518	-53.77329	372.86139	78.41662	-40.80331	332.82135	73.70052	20.79777	81.58654	142.43571	-4.35140	105.51288	232.35954	85.38268	60.57854	187.53510	-117.30215	34.46997	238.77130	-153.39772	55.33744	184.63052	-95.55268	30.10352	116.85068
